<mxfile host="app.diagrams.net" agent="Mozilla/5.0 (X11; Linux x86_64) AppleWebKit/537.36 (KHTML, like Gecko) Chrome/135.0.0.0 Safari/537.36" version="27.1.3">
  <diagram id="R2lEEEUBdFMjLlhIrx00" name="Page-1">
    <mxGraphModel dx="1313" dy="626" grid="1" gridSize="10" guides="1" tooltips="1" connect="1" arrows="1" fold="1" page="0" pageScale="1" pageWidth="1169" pageHeight="827" background="#FFFFFF" math="0" shadow="0" extFonts="Permanent Marker^https://fonts.googleapis.com/css?family=Permanent+Marker">
      <root>
        <mxCell id="0" />
        <mxCell id="1" parent="0" />
        <mxCell id="lDLYas_1JoU8hUVh2hBd-32" style="edgeStyle=orthogonalEdgeStyle;rounded=0;orthogonalLoop=1;jettySize=auto;html=1;exitX=1;exitY=1;exitDx=0;exitDy=0;strokeColor=#E07A5F;fontColor=#393C56;fillColor=#F2CC8F;entryX=0;entryY=0.5;entryDx=0;entryDy=0;shape=link;" parent="1" source="lDLYas_1JoU8hUVh2hBd-2" target="lDLYas_1JoU8hUVh2hBd-16" edge="1">
          <mxGeometry relative="1" as="geometry" />
        </mxCell>
        <mxCell id="lDLYas_1JoU8hUVh2hBd-39" style="edgeStyle=orthogonalEdgeStyle;shape=link;rounded=0;orthogonalLoop=1;jettySize=auto;html=1;exitX=0;exitY=0.75;exitDx=0;exitDy=0;entryX=1;entryY=0.5;entryDx=0;entryDy=0;strokeColor=#E07A5F;align=center;verticalAlign=middle;fontFamily=Helvetica;fontSize=11;fontColor=#393C56;labelBackgroundColor=default;startFill=0;endArrow=none;fillColor=#F2CC8F;" parent="1" source="lDLYas_1JoU8hUVh2hBd-2" target="lDLYas_1JoU8hUVh2hBd-18" edge="1">
          <mxGeometry relative="1" as="geometry">
            <Array as="points">
              <mxPoint x="-170" y="440" />
              <mxPoint x="-170" y="580" />
            </Array>
          </mxGeometry>
        </mxCell>
        <mxCell id="lDLYas_1JoU8hUVh2hBd-44" style="edgeStyle=orthogonalEdgeStyle;rounded=0;orthogonalLoop=1;jettySize=auto;html=1;exitX=1;exitY=0;exitDx=0;exitDy=0;entryX=0;entryY=0.5;entryDx=0;entryDy=0;strokeColor=#10739e;align=center;verticalAlign=middle;fontFamily=Helvetica;fontSize=11;fontColor=default;labelBackgroundColor=none;startFill=0;endArrow=none;fillColor=#b1ddf0;" parent="1" source="lDLYas_1JoU8hUVh2hBd-2" target="lDLYas_1JoU8hUVh2hBd-43" edge="1">
          <mxGeometry relative="1" as="geometry">
            <Array as="points">
              <mxPoint x="10" y="410" />
              <mxPoint x="10" y="210" />
            </Array>
          </mxGeometry>
        </mxCell>
        <mxCell id="lDLYas_1JoU8hUVh2hBd-60" style="edgeStyle=orthogonalEdgeStyle;rounded=0;orthogonalLoop=1;jettySize=auto;html=1;exitX=0;exitY=1;exitDx=0;exitDy=0;strokeColor=#10739e;align=center;verticalAlign=middle;fontFamily=Helvetica;fontSize=11;fontColor=default;labelBackgroundColor=none;startFill=0;endArrow=none;fillColor=#b1ddf0;entryX=0.5;entryY=0;entryDx=0;entryDy=0;" parent="1" source="lDLYas_1JoU8hUVh2hBd-2" target="lDLYas_1JoU8hUVh2hBd-61" edge="1">
          <mxGeometry relative="1" as="geometry">
            <mxPoint x="-170" y="770" as="targetPoint" />
            <Array as="points">
              <mxPoint x="-110" y="565" />
              <mxPoint x="-140" y="565" />
              <mxPoint x="-140" y="680" />
            </Array>
          </mxGeometry>
        </mxCell>
        <mxCell id="lDLYas_1JoU8hUVh2hBd-2" value="Appication" style="whiteSpace=wrap;html=1;align=center;labelBackgroundColor=none;fillColor=#F2CC8F;strokeColor=#E07A5F;fontColor=#393C56;" parent="1" vertex="1">
          <mxGeometry x="-110" y="410" width="100" height="40" as="geometry" />
        </mxCell>
        <mxCell id="lDLYas_1JoU8hUVh2hBd-27" style="edgeStyle=orthogonalEdgeStyle;rounded=0;orthogonalLoop=1;jettySize=auto;html=1;exitX=1;exitY=0.5;exitDx=0;exitDy=0;entryX=0;entryY=0.5;entryDx=0;entryDy=0;strokeColor=#E07A5F;fontColor=#393C56;fillColor=#F2CC8F;endArrow=none;startFill=0;" parent="1" source="lDLYas_1JoU8hUVh2hBd-3" target="lDLYas_1JoU8hUVh2hBd-14" edge="1">
          <mxGeometry relative="1" as="geometry" />
        </mxCell>
        <mxCell id="lDLYas_1JoU8hUVh2hBd-3" value="Applicant" style="whiteSpace=wrap;html=1;align=center;labelBackgroundColor=none;fillColor=#F2CC8F;strokeColor=#E07A5F;fontColor=#393C56;" parent="1" vertex="1">
          <mxGeometry x="-480" y="410" width="100" height="40" as="geometry" />
        </mxCell>
        <mxCell id="lDLYas_1JoU8hUVh2hBd-4" value="Permit Type" style="whiteSpace=wrap;html=1;align=center;labelBackgroundColor=none;fillColor=#F2CC8F;strokeColor=#E07A5F;fontColor=#393C56;" parent="1" vertex="1">
          <mxGeometry x="260" y="420" width="100" height="40" as="geometry" />
        </mxCell>
        <mxCell id="lDLYas_1JoU8hUVh2hBd-34" style="edgeStyle=orthogonalEdgeStyle;shape=link;rounded=0;orthogonalLoop=1;jettySize=auto;html=1;exitX=1;exitY=0.5;exitDx=0;exitDy=0;strokeColor=#E07A5F;align=center;verticalAlign=middle;fontFamily=Helvetica;fontSize=11;fontColor=#393C56;labelBackgroundColor=default;startFill=0;endArrow=none;fillColor=#F2CC8F;" parent="1" source="lDLYas_1JoU8hUVh2hBd-5" target="lDLYas_1JoU8hUVh2hBd-17" edge="1">
          <mxGeometry relative="1" as="geometry" />
        </mxCell>
        <mxCell id="lDLYas_1JoU8hUVh2hBd-5" value="Land" style="whiteSpace=wrap;html=1;align=center;strokeColor=#E07A5F;fontColor=#393C56;fillColor=#F2CC8F;" parent="1" vertex="1">
          <mxGeometry x="260" y="540" width="100" height="40" as="geometry" />
        </mxCell>
        <mxCell id="lDLYas_1JoU8hUVh2hBd-6" value="Zoning" style="whiteSpace=wrap;html=1;align=center;strokeColor=#E07A5F;fontColor=#393C56;fillColor=#F2CC8F;" parent="1" vertex="1">
          <mxGeometry x="580" y="540" width="100" height="40" as="geometry" />
        </mxCell>
        <mxCell id="lDLYas_1JoU8hUVh2hBd-40" style="edgeStyle=orthogonalEdgeStyle;shape=link;rounded=0;orthogonalLoop=1;jettySize=auto;html=1;exitX=1;exitY=0.5;exitDx=0;exitDy=0;entryX=0;entryY=0.5;entryDx=0;entryDy=0;strokeColor=#E07A5F;align=center;verticalAlign=middle;fontFamily=Helvetica;fontSize=11;fontColor=#393C56;labelBackgroundColor=default;startFill=0;endArrow=none;fillColor=#F2CC8F;" parent="1" source="lDLYas_1JoU8hUVh2hBd-7" target="lDLYas_1JoU8hUVh2hBd-18" edge="1">
          <mxGeometry relative="1" as="geometry" />
        </mxCell>
        <mxCell id="lDLYas_1JoU8hUVh2hBd-66" style="edgeStyle=orthogonalEdgeStyle;shape=connector;rounded=0;orthogonalLoop=1;jettySize=auto;html=1;exitX=1;exitY=1;exitDx=0;exitDy=0;entryX=0.5;entryY=0;entryDx=0;entryDy=0;strokeColor=#10739e;align=center;verticalAlign=middle;fontFamily=Helvetica;fontSize=11;fontColor=default;labelBackgroundColor=none;startFill=0;endArrow=none;fillColor=#b1ddf0;" parent="1" source="lDLYas_1JoU8hUVh2hBd-7" target="lDLYas_1JoU8hUVh2hBd-64" edge="1">
          <mxGeometry relative="1" as="geometry" />
        </mxCell>
        <mxCell id="lDLYas_1JoU8hUVh2hBd-7" value="Staff" style="whiteSpace=wrap;html=1;align=center;strokeColor=#E07A5F;fontColor=#393C56;fillColor=#F2CC8F;" parent="1" vertex="1">
          <mxGeometry x="-480" y="560" width="100" height="40" as="geometry" />
        </mxCell>
        <mxCell id="lDLYas_1JoU8hUVh2hBd-56" style="edgeStyle=orthogonalEdgeStyle;shape=link;rounded=0;orthogonalLoop=1;jettySize=auto;html=1;exitX=1;exitY=0.5;exitDx=0;exitDy=0;entryX=0;entryY=0.5;entryDx=0;entryDy=0;strokeColor=#E07A5F;align=center;verticalAlign=middle;fontFamily=Helvetica;fontSize=11;fontColor=default;labelBackgroundColor=none;startFill=0;endArrow=none;fillColor=#F2CC8F;" parent="1" source="lDLYas_1JoU8hUVh2hBd-8" target="lDLYas_1JoU8hUVh2hBd-21" edge="1">
          <mxGeometry relative="1" as="geometry" />
        </mxCell>
        <mxCell id="lDLYas_1JoU8hUVh2hBd-8" value="Documents" style="whiteSpace=wrap;html=1;align=center;strokeColor=#E07A5F;fontColor=#393C56;fillColor=#F2CC8F;" parent="1" vertex="1">
          <mxGeometry x="-480" y="290" width="100" height="40" as="geometry" />
        </mxCell>
        <mxCell id="lDLYas_1JoU8hUVh2hBd-9" value="Permit" style="shape=ext;margin=3;double=1;whiteSpace=wrap;html=1;align=center;strokeColor=#000000;fontColor=#393C56;fillColor=#99FF99;" parent="1" vertex="1">
          <mxGeometry x="260" y="190" width="100" height="40" as="geometry" />
        </mxCell>
        <mxCell id="lDLYas_1JoU8hUVh2hBd-11" value="Violation" style="shape=ext;margin=3;double=1;whiteSpace=wrap;html=1;align=center;strokeColor=#000000;fontColor=#393C56;fillColor=#99FF99;" parent="1" vertex="1">
          <mxGeometry x="-195" y="810" width="100" height="40" as="geometry" />
        </mxCell>
        <mxCell id="lDLYas_1JoU8hUVh2hBd-13" value="Review" style="shape=ext;margin=3;double=1;whiteSpace=wrap;html=1;align=center;strokeColor=#000000;fontColor=#393C56;fillColor=#99FF99;" parent="1" vertex="1">
          <mxGeometry x="-530" y="790" width="100" height="40" as="geometry" />
        </mxCell>
        <mxCell id="lDLYas_1JoU8hUVh2hBd-29" style="edgeStyle=orthogonalEdgeStyle;rounded=0;orthogonalLoop=1;jettySize=auto;html=1;exitX=1;exitY=0.5;exitDx=0;exitDy=0;entryX=0;entryY=0.5;entryDx=0;entryDy=0;strokeColor=#E07A5F;fontColor=#393C56;fillColor=#F2CC8F;shape=link;" parent="1" source="lDLYas_1JoU8hUVh2hBd-14" target="lDLYas_1JoU8hUVh2hBd-2" edge="1">
          <mxGeometry relative="1" as="geometry" />
        </mxCell>
        <mxCell id="lDLYas_1JoU8hUVh2hBd-14" value="Submits" style="shape=rhombus;perimeter=rhombusPerimeter;whiteSpace=wrap;html=1;align=center;strokeColor=#3700CC;fontColor=#ffffff;fillColor=light-dark(#9d80c6, #ffa7ff);" parent="1" vertex="1">
          <mxGeometry x="-295" y="400" width="100" height="60" as="geometry" />
        </mxCell>
        <mxCell id="lDLYas_1JoU8hUVh2hBd-28" style="edgeStyle=orthogonalEdgeStyle;rounded=0;orthogonalLoop=1;jettySize=auto;html=1;exitX=0;exitY=0.5;exitDx=0;exitDy=0;entryX=1;entryY=0.75;entryDx=0;entryDy=0;strokeColor=#E07A5F;fontColor=#393C56;fillColor=#F2CC8F;endArrow=none;startFill=0;shape=link;" parent="1" source="lDLYas_1JoU8hUVh2hBd-15" target="lDLYas_1JoU8hUVh2hBd-2" edge="1">
          <mxGeometry relative="1" as="geometry" />
        </mxCell>
        <mxCell id="lDLYas_1JoU8hUVh2hBd-30" style="edgeStyle=orthogonalEdgeStyle;rounded=0;orthogonalLoop=1;jettySize=auto;html=1;exitX=1;exitY=0.5;exitDx=0;exitDy=0;entryX=0;entryY=0.5;entryDx=0;entryDy=0;strokeColor=#E07A5F;fontColor=#393C56;fillColor=#F2CC8F;endArrow=none;startFill=0;" parent="1" source="lDLYas_1JoU8hUVh2hBd-15" target="lDLYas_1JoU8hUVh2hBd-4" edge="1">
          <mxGeometry relative="1" as="geometry" />
        </mxCell>
        <mxCell id="lDLYas_1JoU8hUVh2hBd-15" value="Applies For" style="shape=rhombus;perimeter=rhombusPerimeter;whiteSpace=wrap;html=1;align=center;strokeColor=#3700CC;fontColor=#ffffff;fillColor=light-dark(#9d80c6, #ffa7ff);" parent="1" vertex="1">
          <mxGeometry x="90" y="410" width="100" height="60" as="geometry" />
        </mxCell>
        <mxCell id="lDLYas_1JoU8hUVh2hBd-33" style="edgeStyle=orthogonalEdgeStyle;rounded=0;orthogonalLoop=1;jettySize=auto;html=1;exitX=1;exitY=0.5;exitDx=0;exitDy=0;strokeColor=#E07A5F;fontColor=#393C56;fillColor=#F2CC8F;endArrow=none;startFill=0;" parent="1" source="lDLYas_1JoU8hUVh2hBd-16" target="lDLYas_1JoU8hUVh2hBd-5" edge="1">
          <mxGeometry relative="1" as="geometry" />
        </mxCell>
        <mxCell id="lDLYas_1JoU8hUVh2hBd-16" value="Refers To" style="shape=rhombus;perimeter=rhombusPerimeter;whiteSpace=wrap;html=1;align=center;strokeColor=#3700CC;fontColor=#ffffff;fillColor=light-dark(#9d80c6, #ffa7ff);" parent="1" vertex="1">
          <mxGeometry x="80" y="530" width="100" height="60" as="geometry" />
        </mxCell>
        <mxCell id="lDLYas_1JoU8hUVh2hBd-37" style="edgeStyle=orthogonalEdgeStyle;shape=connector;rounded=0;orthogonalLoop=1;jettySize=auto;html=1;exitX=1;exitY=0.5;exitDx=0;exitDy=0;entryX=0;entryY=0.5;entryDx=0;entryDy=0;strokeColor=#E07A5F;align=center;verticalAlign=middle;fontFamily=Helvetica;fontSize=11;fontColor=#393C56;labelBackgroundColor=default;startFill=0;endArrow=none;fillColor=#F2CC8F;" parent="1" source="lDLYas_1JoU8hUVh2hBd-17" target="lDLYas_1JoU8hUVh2hBd-6" edge="1">
          <mxGeometry relative="1" as="geometry" />
        </mxCell>
        <mxCell id="lDLYas_1JoU8hUVh2hBd-17" value="Falls Under" style="shape=rhombus;perimeter=rhombusPerimeter;whiteSpace=wrap;html=1;align=center;strokeColor=#3700CC;fontColor=#ffffff;fillColor=light-dark(#9d80c6, #ffa7ff);" parent="1" vertex="1">
          <mxGeometry x="430" y="530" width="90" height="60" as="geometry" />
        </mxCell>
        <mxCell id="lDLYas_1JoU8hUVh2hBd-18" value="Reviewd By" style="shape=rhombus;perimeter=rhombusPerimeter;whiteSpace=wrap;html=1;align=center;strokeColor=#3700CC;fontColor=#ffffff;fillColor=light-dark(#9d80c6, #ffa7ff);" parent="1" vertex="1">
          <mxGeometry x="-297" y="550" width="100" height="60" as="geometry" />
        </mxCell>
        <mxCell id="lDLYas_1JoU8hUVh2hBd-55" style="edgeStyle=orthogonalEdgeStyle;shape=link;rounded=0;orthogonalLoop=1;jettySize=auto;html=1;exitX=1;exitY=0.5;exitDx=0;exitDy=0;entryX=0;entryY=0.25;entryDx=0;entryDy=0;strokeColor=#E07A5F;align=center;verticalAlign=middle;fontFamily=Helvetica;fontSize=11;fontColor=default;labelBackgroundColor=none;startFill=0;endArrow=none;fillColor=#F2CC8F;" parent="1" source="lDLYas_1JoU8hUVh2hBd-21" target="lDLYas_1JoU8hUVh2hBd-2" edge="1">
          <mxGeometry relative="1" as="geometry">
            <Array as="points">
              <mxPoint x="-170" y="310" />
              <mxPoint x="-170" y="420" />
            </Array>
          </mxGeometry>
        </mxCell>
        <mxCell id="lDLYas_1JoU8hUVh2hBd-21" value="Has Document" style="shape=rhombus;perimeter=rhombusPerimeter;whiteSpace=wrap;html=1;align=center;strokeColor=#3700CC;fontColor=#ffffff;fillColor=light-dark(#9d80c6, #ffa7ff);" parent="1" vertex="1">
          <mxGeometry x="-292" y="280" width="90" height="60" as="geometry" />
        </mxCell>
        <mxCell id="lDLYas_1JoU8hUVh2hBd-46" style="edgeStyle=orthogonalEdgeStyle;shape=connector;rounded=0;orthogonalLoop=1;jettySize=auto;html=1;exitX=1;exitY=0.5;exitDx=0;exitDy=0;entryX=0;entryY=0.5;entryDx=0;entryDy=0;strokeColor=light-dark(#606fe1, #b9624b);align=center;verticalAlign=middle;fontFamily=Helvetica;fontSize=11;fontColor=default;labelBackgroundColor=none;startFill=0;endArrow=none;fillColor=#F2CC8F;" parent="1" source="lDLYas_1JoU8hUVh2hBd-43" target="lDLYas_1JoU8hUVh2hBd-9" edge="1">
          <mxGeometry relative="1" as="geometry" />
        </mxCell>
        <mxCell id="lDLYas_1JoU8hUVh2hBd-47" value="" style="edgeStyle=orthogonalEdgeStyle;shape=link;rounded=0;orthogonalLoop=1;jettySize=auto;html=1;strokeColor=#10739e;align=center;verticalAlign=middle;fontFamily=Helvetica;fontSize=11;fontColor=default;labelBackgroundColor=none;startFill=0;endArrow=none;fillColor=#b1ddf0;" parent="1" source="lDLYas_1JoU8hUVh2hBd-43" target="lDLYas_1JoU8hUVh2hBd-9" edge="1">
          <mxGeometry relative="1" as="geometry" />
        </mxCell>
        <mxCell id="lDLYas_1JoU8hUVh2hBd-43" value="Issues" style="shape=rhombus;double=1;perimeter=rhombusPerimeter;whiteSpace=wrap;html=1;align=center;strokeColor=#10739e;fontFamily=Helvetica;fontSize=11;labelBackgroundColor=none;fillColor=#b1ddf0;" parent="1" vertex="1">
          <mxGeometry x="70" y="180" width="100" height="60" as="geometry" />
        </mxCell>
        <mxCell id="lDLYas_1JoU8hUVh2hBd-54" style="edgeStyle=orthogonalEdgeStyle;shape=connector;rounded=0;orthogonalLoop=1;jettySize=auto;html=1;exitX=0.5;exitY=0;exitDx=0;exitDy=0;entryX=0.75;entryY=1;entryDx=0;entryDy=0;strokeColor=#10739e;align=center;verticalAlign=middle;fontFamily=Helvetica;fontSize=11;fontColor=default;labelBackgroundColor=none;startFill=0;endArrow=none;fillColor=#b1ddf0;" parent="1" source="lDLYas_1JoU8hUVh2hBd-50" target="lDLYas_1JoU8hUVh2hBd-2" edge="1">
          <mxGeometry relative="1" as="geometry" />
        </mxCell>
        <mxCell id="lDLYas_1JoU8hUVh2hBd-50" value="&lt;span style=&quot;font-size: 12px;&quot;&gt;&lt;font style=&quot;color: rgb(0, 0, 0);&quot;&gt;Has Payment&lt;/font&gt;&lt;/span&gt;" style="shape=rhombus;double=1;perimeter=rhombusPerimeter;whiteSpace=wrap;html=1;align=center;strokeColor=#10739e;verticalAlign=middle;fontFamily=Helvetica;fontSize=11;fontColor=default;labelBackgroundColor=none;fillColor=#b1ddf0;" parent="1" vertex="1">
          <mxGeometry x="-100" y="530" width="80" height="60" as="geometry" />
        </mxCell>
        <mxCell id="lDLYas_1JoU8hUVh2hBd-53" style="edgeStyle=orthogonalEdgeStyle;shape=link;rounded=0;orthogonalLoop=1;jettySize=auto;html=1;exitX=0.5;exitY=0;exitDx=0;exitDy=0;entryX=0.5;entryY=1;entryDx=0;entryDy=0;strokeColor=#10739e;align=center;verticalAlign=middle;fontFamily=Helvetica;fontSize=11;fontColor=default;labelBackgroundColor=none;startFill=0;endArrow=none;fillColor=#b1ddf0;" parent="1" source="lDLYas_1JoU8hUVh2hBd-51" target="lDLYas_1JoU8hUVh2hBd-50" edge="1">
          <mxGeometry relative="1" as="geometry" />
        </mxCell>
        <mxCell id="lDLYas_1JoU8hUVh2hBd-51" value="Payment" style="shape=ext;margin=3;double=1;whiteSpace=wrap;html=1;align=center;strokeColor=#000000;fontColor=#393C56;fillColor=#99FF99;" parent="1" vertex="1">
          <mxGeometry x="-50" y="640" width="100" height="40" as="geometry" />
        </mxCell>
        <mxCell id="lDLYas_1JoU8hUVh2hBd-59" style="edgeStyle=orthogonalEdgeStyle;shape=link;rounded=0;orthogonalLoop=1;jettySize=auto;html=1;exitX=0.5;exitY=1;exitDx=0;exitDy=0;entryX=0.5;entryY=0;entryDx=0;entryDy=0;strokeColor=#10739e;align=center;verticalAlign=middle;fontFamily=Helvetica;fontSize=11;fontColor=default;labelBackgroundColor=none;startFill=0;endArrow=none;fillColor=#b1ddf0;" parent="1" source="lDLYas_1JoU8hUVh2hBd-57" target="lDLYas_1JoU8hUVh2hBd-13" edge="1">
          <mxGeometry relative="1" as="geometry" />
        </mxCell>
        <mxCell id="lDLYas_1JoU8hUVh2hBd-57" value="Writen" style="shape=rhombus;double=1;perimeter=rhombusPerimeter;whiteSpace=wrap;html=1;align=center;strokeColor=#10739e;verticalAlign=middle;fontFamily=Helvetica;fontSize=11;fontColor=default;labelBackgroundColor=none;fillColor=#b1ddf0;" parent="1" vertex="1">
          <mxGeometry x="-525" y="670" width="90" height="60" as="geometry" />
        </mxCell>
        <mxCell id="lDLYas_1JoU8hUVh2hBd-58" style="edgeStyle=orthogonalEdgeStyle;shape=connector;rounded=0;orthogonalLoop=1;jettySize=auto;html=1;exitX=0.5;exitY=0;exitDx=0;exitDy=0;entryX=0.593;entryY=1.043;entryDx=0;entryDy=0;entryPerimeter=0;strokeColor=#10739e;align=center;verticalAlign=middle;fontFamily=Helvetica;fontSize=11;fontColor=default;labelBackgroundColor=none;startFill=0;endArrow=none;fillColor=#b1ddf0;" parent="1" source="lDLYas_1JoU8hUVh2hBd-57" target="lDLYas_1JoU8hUVh2hBd-7" edge="1">
          <mxGeometry relative="1" as="geometry" />
        </mxCell>
        <mxCell id="lDLYas_1JoU8hUVh2hBd-63" style="edgeStyle=orthogonalEdgeStyle;shape=link;rounded=0;orthogonalLoop=1;jettySize=auto;html=1;exitX=0.5;exitY=1;exitDx=0;exitDy=0;strokeColor=#10739e;align=center;verticalAlign=middle;fontFamily=Helvetica;fontSize=11;fontColor=default;labelBackgroundColor=none;startFill=0;endArrow=none;fillColor=#b1ddf0;" parent="1" source="lDLYas_1JoU8hUVh2hBd-61" target="lDLYas_1JoU8hUVh2hBd-11" edge="1">
          <mxGeometry relative="1" as="geometry" />
        </mxCell>
        <mxCell id="lDLYas_1JoU8hUVh2hBd-61" value="Violates" style="shape=rhombus;double=1;perimeter=rhombusPerimeter;whiteSpace=wrap;html=1;align=center;strokeColor=#10739e;verticalAlign=middle;fontFamily=Helvetica;fontSize=11;fontColor=default;labelBackgroundColor=none;fillColor=#b1ddf0;" parent="1" vertex="1">
          <mxGeometry x="-190" y="680" width="90" height="60" as="geometry" />
        </mxCell>
        <mxCell id="lDLYas_1JoU8hUVh2hBd-67" style="edgeStyle=orthogonalEdgeStyle;shape=link;rounded=0;orthogonalLoop=1;jettySize=auto;html=1;exitX=0.5;exitY=1;exitDx=0;exitDy=0;entryX=0.25;entryY=0;entryDx=0;entryDy=0;strokeColor=#10739e;align=center;verticalAlign=middle;fontFamily=Helvetica;fontSize=11;fontColor=default;labelBackgroundColor=none;startFill=0;endArrow=none;fillColor=#b1ddf0;" parent="1" source="lDLYas_1JoU8hUVh2hBd-64" target="lDLYas_1JoU8hUVh2hBd-11" edge="1">
          <mxGeometry relative="1" as="geometry" />
        </mxCell>
        <mxCell id="lDLYas_1JoU8hUVh2hBd-64" value="Reported By" style="shape=rhombus;double=1;perimeter=rhombusPerimeter;whiteSpace=wrap;html=1;align=center;strokeColor=#10739e;verticalAlign=middle;fontFamily=Helvetica;fontSize=11;fontColor=default;labelBackgroundColor=none;fillColor=#b1ddf0;" parent="1" vertex="1">
          <mxGeometry x="-360" y="680" width="90" height="60" as="geometry" />
        </mxCell>
      </root>
    </mxGraphModel>
  </diagram>
</mxfile>
